<svg width="0" height="0" class="hidden">
  <symbol fill="none" xmlns="http://www.w3.org/2000/svg" viewBox="0 0 20 20" id="shopping-bag">
    <g clip-path="url(#clip0)">
      <path d="M18.674 19.3426L17.1539 4.86709C17.122 4.56405 16.8666 4.33395 16.5619 4.33395H13.7048V3.68255C13.7048 1.65207 12.0528 0 10.0223 0C7.99166 0 6.33959 1.65207 6.33959 3.68255V4.33395H3.48254C3.17782 4.33395 2.92239 4.56405 2.8905 4.86709L1.37042 19.3426C1.35287 19.5103 1.40735 19.6777 1.52011 19.8031C1.63302 19.9284 1.79385 20 1.96246 20H18.0818C18.2506 20 18.4114 19.9284 18.5242 19.8031C18.6372 19.6777 18.6916 19.5103 18.674 19.3426ZM7.53008 3.68255C7.53008 2.3085 8.64809 1.19049 10.0223 1.19049C11.3963 1.19049 12.5144 2.3085 12.5144 3.68255V4.33395H7.53008V3.68255ZM2.62347 18.8095L4.01858 5.52443H6.33959V6.83623C6.33959 7.1649 6.60616 7.43147 6.93483 7.43147C7.26351 7.43147 7.53008 7.1649 7.53008 6.83623V5.52443H12.5144V6.83623C12.5144 7.1649 12.7809 7.43147 13.1096 7.43147C13.4383 7.43147 13.7048 7.1649 13.7048 6.83623V5.52443H16.0259L17.421 18.8095H2.62347Z" fill="white"></path>
    </g>
    <defs>
      <clipPath id="clip0">
        <rect width="20" height="20" fill="white"></rect>
      </clipPath>
    </defs>
  </symbol>
  <symbol fill="none" xmlns="http://www.w3.org/2000/svg" viewBox="0 0 34 34" id="Quik_view">
    <circle cx="17" cy="17" r="17" fill="white"></circle>
    <path d="M25.0192 17.2755L25.1879 17L25.0192 16.7244C24.9909 16.6784 24.3119 15.5825 22.9929 14.4843C21.2385 13.0238 19.1717 12.2517 17.0158 12.2517C14.8604 12.2517 12.7885 13.0234 11.0241 14.4832C9.69749 15.5808 9.01085 16.6759 8.98228 16.722L8.80994 17L8.98228 17.278C9.01085 17.3241 9.69749 18.4192 11.0241 19.5168C12.7885 20.9766 14.8604 21.7483 17.0158 21.7483C19.1717 21.7483 21.2385 20.9762 22.9929 19.5157C24.3119 18.4175 24.9909 17.3216 25.0192 17.2755ZM22.29 18.7283C20.7118 20.0324 18.9373 20.6935 17.0158 20.6935C15.0936 20.6935 13.3132 20.032 11.7243 18.7271C10.9026 18.0522 10.3454 17.3689 10.0725 17C10.3456 16.6309 10.9027 15.9476 11.7243 15.2728C13.3132 13.968 15.0934 13.3064 17.0158 13.3064C18.9373 13.3064 20.7117 13.9676 22.29 15.2716C23.1081 15.9475 23.6604 16.6318 23.9296 17C23.6602 17.3683 23.108 18.0526 22.29 18.7283Z" fill="black"></path>
    <path d="M17 13.8313C15.2528 13.8313 13.8313 15.2528 13.8313 17C13.8313 18.7473 15.2528 20.1688 17 20.1688C18.7473 20.1688 20.1688 18.7473 20.1688 17C20.1688 15.2528 18.7473 13.8313 17 13.8313ZM17 19.1141C15.8344 19.1141 14.886 18.1657 14.886 17C14.886 15.8344 15.8344 14.886 17 14.886C18.1657 14.886 19.1141 15.8344 19.1141 17C19.1141 18.1657 18.1657 19.1141 17 19.1141Z" fill="black"></path>
    <path d="M9.05469 9.05469H11.2563V8H8V11.2168H9.05469V9.05469Z" fill="black"></path>
    <path d="M22.7437 8V9.05469H24.9453V11.2168H26V8H22.7437Z" fill="black"></path>
    <path d="M9.05469 22.7832H8V26H11.2563V24.9453H9.05469V22.7832Z" fill="black"></path>
    <path d="M24.9453 24.9453H22.7437V26H26V22.7832H24.9453V24.9453Z" fill="black"></path>
  </symbol>
  <symbol fill="none" xmlns="http://www.w3.org/2000/svg" viewBox="0 0 41 41" id="phone">
    <g clip-path="url(#clip0)">
      <path d="M29.6316 23.7153C28.6284 23.5834 27.639 23.3374 26.6933 22.9849C25.6437 22.5927 24.4506 22.8455 23.6504 23.6347L22.6275 24.6549C20.3308 23.2575 18.3991 21.3298 16.9976 19.0379L18.022 18.0157C18.8105 17.2189 19.0654 16.0272 18.6711 14.9804C18.3172 14.0339 18.0705 13.0472 17.938 12.04C17.7364 10.616 16.5064 9.53222 15.0625 9.5657H11.7642C11.6781 9.5657 11.592 9.56978 11.5073 9.57803C10.7406 9.64633 10.047 10.0099 9.55364 10.5996C9.06028 11.1906 8.82662 11.9375 8.89692 12.7138C9.26728 16.1953 10.4713 19.5887 12.3751 22.5222C14.1052 25.2398 16.4586 27.5891 19.1769 29.313C22.1063 31.2086 25.4901 32.4106 28.9765 32.7885C29.0653 32.7966 29.1542 32.8001 29.2457 32.8001C30.0158 32.7974 30.7381 32.4953 31.2807 31.948C31.8232 31.4027 32.1198 30.6784 32.1171 29.9123V26.6284C32.1489 25.1708 31.0842 23.9197 29.6316 23.7153ZM30.7515 26.6222V29.9165C30.7529 30.3197 30.597 30.6996 30.3121 30.9866C30.0272 31.2736 29.6472 31.4321 29.2448 31.4335C29.1956 31.4335 29.1464 31.4314 29.1108 31.4287C25.85 31.0754 22.6725 29.9465 19.9153 28.1624C17.3604 26.5422 15.1518 24.3379 13.5255 21.7843C11.7345 19.025 10.6043 15.8393 10.2572 12.5812C10.2203 12.1794 10.3433 11.7872 10.6022 11.4777C10.8619 11.1675 11.2268 10.9768 11.6313 10.9406C11.6758 10.9365 11.7201 10.9338 11.7646 10.9338H15.0698C15.0739 10.9338 15.0794 10.9338 15.0842 10.9338C15.8359 10.9338 16.4795 11.49 16.5855 12.228C16.731 13.3309 17.0023 14.4188 17.3931 15.4629C17.5995 16.0129 17.4662 16.6382 17.0549 17.053L15.6588 18.447C15.4401 18.6643 15.395 19.0012 15.5474 19.269C17.1731 22.122 19.5428 24.487 22.4005 26.1084C22.6677 26.2595 23.0032 26.215 23.2205 25.9978L24.6145 24.6072C25.034 24.1938 25.6607 24.0585 26.2155 24.2676C27.2589 24.6564 28.3489 24.9271 29.4483 25.0719C30.2103 25.1792 30.7706 25.8386 30.7514 26.606C30.7515 26.6106 30.7515 26.6168 30.7515 26.6222Z" fill="#FC9D9D"></path>
      <path d="M20.5001 0.000976562C9.19656 0.000976562 0.000339856 9.1972 0.000339856 20.5007C0.000339856 24.41 1.10324 28.1998 3.1935 31.4859L0.04198 40.0821C-0.0489076 40.3281 0.00986905 40.6048 0.193006 40.7928C0.324172 40.9281 0.501863 41.0005 0.683638 41.0005C0.756108 41.0005 0.829219 40.9889 0.899607 40.9657L9.81636 37.9939C13.0321 39.9612 16.7186 41.0006 20.5002 41.0006C31.8037 41.0006 40.9999 31.8044 40.9999 20.5008C40.9999 9.19728 31.8036 0.000976562 20.5001 0.000976562ZM20.5007 39.6338C16.8696 39.6338 13.332 38.6075 10.2714 36.6662C10.1607 36.5965 10.0335 36.5602 9.90509 36.5602C9.83198 36.5602 9.75951 36.5718 9.68912 36.5958L1.81377 39.2205L4.59493 31.6355C4.6694 31.4319 4.64346 31.2051 4.5239 31.024C2.45887 27.8964 1.36766 24.2577 1.36766 20.5008C1.36766 9.95097 9.95089 1.36773 20.5007 1.36773C31.0506 1.36773 39.6338 9.95097 39.6338 20.5008C39.6338 31.0507 31.0506 39.6338 20.5007 39.6338Z" fill="#FC9D9D"></path>
    </g>
    <defs>
      <clipPath id="clip0">
        <rect width="41" height="41" fill="white"></rect>
      </clipPath>
    </defs>
  </symbol>
  <symbol fill="none" xmlns="http://www.w3.org/2000/svg" viewBox="0 0 18 19" id="instagram">
    <path d="M9.25 5.00781C8.44271 5.00781 7.6875 5.21615 6.98438 5.63281C6.30729 6.02344 5.76042 6.57031 5.34375 7.27344C4.95312 7.95052 4.75781 8.69271 4.75781 9.5C4.75781 10.3073 4.95312 11.0625 5.34375 11.7656C5.76042 12.4427 6.30729 12.9896 6.98438 13.4062C7.6875 13.7969 8.44271 13.9922 9.25 13.9922C10.0573 13.9922 10.7995 13.7969 11.4766 13.4062C12.1797 12.9896 12.7266 12.4427 13.1172 11.7656C13.5339 11.0625 13.7422 10.3073 13.7422 9.5C13.7422 8.69271 13.5339 7.95052 13.1172 7.27344C12.7266 6.57031 12.1797 6.02344 11.4766 5.63281C10.7995 5.21615 10.0573 5.00781 9.25 5.00781ZM9.25 12.4297C8.44271 12.4297 7.7526 12.1432 7.17969 11.5703C6.60677 10.9974 6.32031 10.3073 6.32031 9.5C6.32031 8.69271 6.60677 8.0026 7.17969 7.42969C7.7526 6.85677 8.44271 6.57031 9.25 6.57031C10.0573 6.57031 10.7474 6.85677 11.3203 7.42969C11.8932 8.0026 12.1797 8.69271 12.1797 9.5C12.1797 10.3073 11.8932 10.9974 11.3203 11.5703C10.7474 12.1432 10.0573 12.4297 9.25 12.4297ZM14.9922 4.8125C14.9661 5.09896 14.849 5.34635 14.6406 5.55469C14.4583 5.76302 14.224 5.86719 13.9375 5.86719C13.651 5.86719 13.4036 5.76302 13.1953 5.55469C12.987 5.34635 12.8828 5.09896 12.8828 4.8125C12.8828 4.52604 12.987 4.27865 13.1953 4.07031C13.4036 3.86198 13.651 3.75781 13.9375 3.75781C14.224 3.75781 14.4714 3.86198 14.6797 4.07031C14.888 4.27865 14.9922 4.52604 14.9922 4.8125ZM17.9609 5.86719C17.9089 5.11198 17.7917 4.46094 17.6094 3.91406C17.375 3.26302 17.0104 2.70312 16.5156 2.23438C16.0469 1.73958 15.487 1.375 14.8359 1.14062C14.2891 0.958333 13.638 0.854167 12.8828 0.828125C12.1536 0.776042 10.9427 0.75 9.25 0.75C7.55729 0.75 6.33333 0.776042 5.57812 0.828125C4.84896 0.854167 4.21094 0.958333 3.66406 1.14062C3.01302 1.375 2.4401 1.73958 1.94531 2.23438C1.47656 2.70312 1.125 3.26302 0.890625 3.91406C0.708333 4.46094 0.591146 5.11198 0.539062 5.86719C0.513021 6.59635 0.5 7.80729 0.5 9.5C0.5 11.1927 0.513021 12.4167 0.539062 13.1719C0.591146 13.901 0.708333 14.5391 0.890625 15.0859C1.125 15.737 1.47656 16.3099 1.94531 16.8047C2.4401 17.2734 3.01302 17.612 3.66406 17.8203C4.21094 18.0286 4.84896 18.1458 5.57812 18.1719C6.33333 18.224 7.55729 18.25 9.25 18.25C10.9427 18.25 12.1536 18.224 12.8828 18.1719C13.638 18.1458 14.2891 18.0417 14.8359 17.8594C15.487 17.625 16.0469 17.2734 16.5156 16.8047C17.0104 16.3099 17.375 15.737 17.6094 15.0859C17.7917 14.5391 17.8958 13.901 17.9219 13.1719C17.974 12.4167 18 11.1927 18 9.5C18 7.80729 17.987 6.59635 17.9609 5.86719ZM16.0859 14.6562C15.7734 15.4375 15.2135 15.9974 14.4062 16.3359C13.9896 16.4922 13.2865 16.5964 12.2969 16.6484C11.75 16.6745 10.9427 16.6875 9.875 16.6875H8.625C7.58333 16.6875 6.77604 16.6745 6.20312 16.6484C5.23958 16.5964 4.53646 16.4922 4.09375 16.3359C3.3125 16.0234 2.7526 15.4635 2.41406 14.6562C2.25781 14.2135 2.15365 13.5104 2.10156 12.5469C2.07552 11.974 2.0625 11.1667 2.0625 10.125V8.875C2.0625 7.83333 2.07552 7.02604 2.10156 6.45312C2.15365 5.46354 2.25781 4.76042 2.41406 4.34375C2.72656 3.53646 3.28646 2.97656 4.09375 2.66406C4.53646 2.50781 5.23958 2.40365 6.20312 2.35156C6.77604 2.32552 7.58333 2.3125 8.625 2.3125H9.875C10.9167 2.3125 11.724 2.32552 12.2969 2.35156C13.2865 2.40365 13.9896 2.50781 14.4062 2.66406C15.2135 2.97656 15.7734 3.53646 16.0859 4.34375C16.2422 4.76042 16.3464 5.46354 16.3984 6.45312C16.4245 7 16.4375 7.80729 16.4375 8.875V10.125C16.4375 11.1667 16.4245 11.974 16.3984 12.5469C16.3464 13.5104 16.2422 14.2135 16.0859 14.6562Z" fill="#05297F"></path>
  </symbol>
  <symbol fill="none" xmlns="http://www.w3.org/2000/svg" viewBox="0 0 12 21" id="facebook-f">
    <path d="M10.3984 11.75L10.9453 8.15625H7.46875V5.8125C7.46875 4.79688 7.9375 3.85938 9.5 3.85938H11.1016V0.773438C11.1016 0.773438 9.65625 0.5 8.28906 0.5C5.4375 0.5 3.5625 2.25781 3.5625 5.38281V8.15625H0.359375V11.75H3.5625V20.5H7.46875V11.75H10.3984Z" fill="#05297F"></path>
  </symbol>
  <symbol fill="none" xmlns="http://www.w3.org/2000/svg" viewBox="0 0 24 24" id="heart">
    <path d="M12 22.6648C11.6583 22.6648 11.3289 22.541 11.0722 22.3162C10.1026 21.4684 9.16789 20.6717 8.34318 19.969L8.33897 19.9653C5.92107 17.9048 3.83312 16.1254 2.38037 14.3725C0.756407 12.4129 0 10.555 0 8.52523C0 6.55318 0.676207 4.73385 1.90393 3.40212C3.1463 2.05465 4.851 1.31252 6.70458 1.31252C8.08995 1.31252 9.35869 1.75051 10.4754 2.61422C11.039 3.05019 11.5499 3.58376 12 4.20614C12.4502 3.58376 12.9609 3.05019 13.5247 2.61422C14.6415 1.75051 15.9102 1.31252 17.2956 1.31252C19.149 1.31252 20.8538 2.05465 22.0962 3.40212C23.3239 4.73385 24 6.55318 24 8.52523C24 10.555 23.2437 12.4129 21.6198 14.3723C20.167 16.1254 18.0793 17.9046 15.6617 19.9649C14.8355 20.6688 13.8993 21.4668 12.9276 22.3166C12.6711 22.541 12.3415 22.6648 12 22.6648ZM6.70458 2.71841C5.24834 2.71841 3.91058 3.29958 2.93737 4.355C1.9497 5.42635 1.4057 6.90731 1.4057 8.52523C1.4057 10.2323 2.04016 11.7591 3.4627 13.4755C4.83764 15.1346 6.88274 16.8774 9.25065 18.8954L9.25505 18.8991C10.0829 19.6046 11.0213 20.4044 11.998 21.2584C12.9805 20.4027 13.9204 19.6016 14.7499 18.895C17.1176 16.877 19.1625 15.1346 20.5374 13.4755C21.9598 11.7591 22.5943 10.2323 22.5943 8.52523C22.5943 6.90731 22.0503 5.42635 21.0626 4.355C20.0896 3.29958 18.7516 2.71841 17.2956 2.71841C16.2288 2.71841 15.2494 3.05752 14.3846 3.72622C13.6139 4.32241 13.077 5.07607 12.7622 5.60342C12.6004 5.8746 12.3155 6.03646 12 6.03646C11.6845 6.03646 11.3996 5.8746 11.2377 5.60342C10.9231 5.07607 10.3863 4.32241 9.6154 3.72622C8.75059 3.05752 7.77116 2.71841 6.70458 2.71841Z" fill="black"></path>
  </symbol>
  <symbol fill="none" xmlns="http://www.w3.org/2000/svg" viewBox="0 0 25 25" id="libra 1">
    <g clip-path="url(#clip0)">
      <path d="M13.0078 19.585V3.1592H19.3506C19.3506 3.1592 15.9082 12.5586 15.9717 12.6953C16.1719 14.751 17.959 16.3281 20.083 16.3281C22.2021 16.3281 23.9355 14.7559 24.1846 12.7051C24.2529 12.5635 20.8105 3.1592 20.8105 3.1592H21.4014V2.1094H13.0029V0.537132H11.9824V2.1094H3.58398V3.1592H4.17969C4.17969 3.1592 0.78125 12.3926 0.78125 12.5C0.883789 14.6533 2.71484 16.3281 4.90234 16.3281C7.08984 16.3281 8.92578 14.6485 9.07715 12.5C9.07715 12.4365 5.63477 3.1592 5.63477 3.1592H11.9775V19.5801H0.537109V24.4629H24.4629V19.585H13.0078ZM20.083 15.2832C18.6084 15.2832 17.3828 14.2871 17.0264 12.9737H23.1348C22.7832 14.2823 21.5625 15.2832 20.083 15.2832ZM17.1338 11.9776L20.0879 4.10647L22.9883 11.9776H17.1338ZM4.91699 15.2832C3.44238 15.2832 2.2168 14.2871 1.86035 12.9737H7.96875C7.6123 14.2823 6.3916 15.2832 4.91699 15.2832ZM2.01172 11.9776L4.96582 4.10647L7.86621 11.9776H2.01172ZM23.4961 23.4668H1.55762V20.6348H23.4961V23.4668Z" fill="black"></path>
    </g>
    <defs>
      <clipPath id="clip0">
        <rect width="25" height="25" fill="white"></rect>
      </clipPath>
    </defs>
  </symbol>
  <symbol fill="none" xmlns="http://www.w3.org/2000/svg" viewBox="0 0 26 26" id="cart 1">
    <g clip-path="url(#clip0)">
      <path d="M23.5879 15.2903L25.4414 6.25119H7.17539L6.54063 3.24494L1.03594 0.558617L0.558594 1.50823L5.58594 3.93557L8.125 16.0621H22.8008C22.8008 16.0621 24.248 16.9711 23.6895 18.1188C23.4406 18.4742 23.0547 18.911 22.3641 18.911H7.75938V19.9571H22.3691C23.3746 19.9571 24.2227 19.4289 24.7 18.586C25.6344 16.8391 23.5879 15.2903 23.5879 15.2903ZM9.02891 15.0008L7.38867 7.30237H24.1719L22.5824 15.0008H9.02891Z" fill="black"></path>
      <path d="M10.7758 21.4349C9.66372 21.4349 8.76489 22.3286 8.76489 23.4357C8.76489 24.5427 9.66372 25.4365 10.7758 25.4365C11.8879 25.4365 12.7868 24.5427 12.7868 23.4357C12.7868 22.3286 11.8879 21.4349 10.7758 21.4349ZM10.7758 24.3853C10.2477 24.3853 9.82114 23.9638 9.82114 23.4357C9.82114 22.9075 10.2426 22.4861 10.7758 22.4861C11.309 22.4861 11.7305 22.9075 11.7305 23.4357C11.7305 23.9638 11.304 24.3853 10.7758 24.3853Z" fill="black"></path>
      <path d="M21.577 21.4349C20.4649 21.4349 19.566 22.3286 19.566 23.4357C19.566 24.5427 20.4649 25.4415 21.577 25.4415C22.6891 25.4415 23.6438 24.5478 23.5879 23.4407C23.5879 22.3337 22.6891 21.4349 21.577 21.4349ZM22.5317 23.4407C22.5317 23.9689 22.1102 24.3904 21.577 24.3904C21.0438 24.3904 20.6223 23.9689 20.6223 23.4407C20.6223 22.9126 21.0438 22.4911 21.577 22.4911C22.1102 22.4911 22.5825 22.9126 22.5317 23.4407Z" fill="black"></path>
    </g>
    <defs>
      <clipPath id="clip0">
        <rect width="26" height="26" fill="white"></rect>
      </clipPath>
    </defs>
  </symbol>
  <symbol fill="none" xmlns="http://www.w3.org/2000/svg" viewBox="0 0 25 25" id="user 1">
    <path d="M12.5 0C5.60762 0 0 5.60762 0 12.5C0 19.3923 5.60762 24.9999 12.5 24.9999C19.3923 24.9999 24.9999 19.3923 24.9999 12.5C24.9999 5.60762 19.3924 0 12.5 0ZM12.5 23.913C6.2065 23.913 1.08694 18.7934 1.08694 12.5C1.08694 6.2065 6.2065 1.08694 12.5 1.08694C18.7934 1.08694 23.913 6.2065 23.913 12.5C23.913 18.7934 18.7934 23.913 12.5 23.913Z" fill="#05297F"></path>
    <path d="M12.4999 11.9558C8.60425 11.9558 5.43469 15.1253 5.43469 19.021C5.43469 19.321 5.67819 19.5645 5.97819 19.5645C6.27819 19.5645 6.52168 19.3209 6.52168 19.0209C6.52168 15.7242 9.20318 13.0427 12.4999 13.0427C15.7967 13.0427 18.4782 15.7242 18.4782 19.0209C18.4782 19.3209 18.7217 19.5644 19.0217 19.5644C19.3217 19.5644 19.5652 19.3209 19.5652 19.0209C19.5652 15.1253 16.3956 11.9558 12.4999 11.9558Z" fill="#05297F"></path>
    <path d="M12.4999 3.26091C10.4021 3.26091 8.69556 4.96741 8.69556 7.06527C8.69556 9.16313 10.4021 10.8696 12.4999 10.8696C14.5978 10.8696 16.3043 9.16308 16.3043 7.06527C16.3043 4.96746 14.5978 3.26091 12.4999 3.26091ZM12.4999 9.78264C11.0021 9.78264 9.78254 8.56308 9.78254 7.06527C9.78254 5.56746 11.0021 4.3479 12.4999 4.3479C13.9977 4.3479 15.2173 5.56746 15.2173 7.06527C15.2173 8.56308 13.9978 9.78264 12.4999 9.78264Z" fill="#05297F"></path>
  </symbol>
 
  <symbol fill="none" xmlns="http://www.w3.org/2000/svg" viewBox="0 0 8 8" id="up-chevron 1">
    <g clip-path="url(#clip0)">
      <path d="M4 5.25046L7.25001 2.00047H8L4 6.00047L0 2.00047H0.749993L4 5.25046Z" fill="black"></path>
    </g>
    <defs>
      <clipPath id="clip0">
        <rect width="8" height="8" fill="white" transform="matrix(-1 0 0 1 8 0)"></rect>
      </clipPath>
    </defs>
  </symbol>
  <symbol fill="none" xmlns="http://www.w3.org/2000/svg" viewBox="0 0 40 40" id="next">
    <g clip-path="url(#clip0)">
      <path d="M39.9366 20.3088C40.0655 19.9972 39.9938 19.6386 39.755 19.4004L24.755 4.40044C24.424 4.08067 23.8964 4.08989 23.5766 4.42091C23.2648 4.74388 23.2648 5.25583 23.5766 5.57872L37.155 19.1571H0.833359C0.373125 19.1572 0 19.5303 0 19.9905C0 20.4508 0.373125 20.8239 0.833359 20.8239H37.155L23.5784 34.4005C23.2473 34.7203 23.2381 35.2478 23.5579 35.5789C23.8777 35.9099 24.4052 35.919 24.7362 35.5993C24.7432 35.5926 24.75 35.5858 24.7567 35.5789L39.7567 20.5789C39.8337 20.5015 39.8949 20.4097 39.9366 20.3088Z" fill="#2196F3"></path>
      <path d="M24.1666 35.8236C23.7063 35.8245 23.3326 35.452 23.3317 34.9918C23.3313 34.7699 23.4195 34.557 23.5766 34.4003L37.9883 19.9904L23.5766 5.58036C23.2568 5.24934 23.266 4.72176 23.597 4.402C23.92 4.09012 24.432 4.09012 24.7549 4.402L39.7549 19.402C40.0802 19.7274 40.0802 20.2549 39.7549 20.5804L24.7549 35.5804C24.5988 35.7361 24.3872 35.8236 24.1666 35.8236Z" fill="black"></path>
      <path d="M39.1666 20.824H0.833359C0.373125 20.824 0 20.451 0 19.9908C0 19.5305 0.373125 19.1574 0.833359 19.1574H39.1667C39.627 19.1574 40.0001 19.5305 40.0001 19.9908C40 20.451 39.6269 20.824 39.1666 20.824Z" fill="black"></path>
    </g>
    <defs>
      <clipPath id="clip0">
        <rect width="40" height="40" fill="white"></rect>
      </clipPath>
    </defs>
  </symbol>
   <symbol fill="none" xmlns="http://www.w3.org/2000/svg" viewBox="0 0 40 40" id="prev">
    <g clip-path="url(#clip0)">
      <path d="M0.0633559 19.6912C-0.0654703 20.0028 0.00624601 20.3614 0.244996 20.5996L15.245 35.5996C15.576 35.9193 16.1036 35.9101 16.4234 35.5791C16.7352 35.2561 16.7352 34.7442 16.4234 34.4213L2.84499 20.8429L39.1666 20.8429C39.6269 20.8428 40 20.4697 40 20.0095C40 19.5492 39.6269 19.1761 39.1666 19.1761L2.845 19.1761L16.4216 5.59948C16.7527 5.27972 16.7619 4.75222 16.4421 4.42112C16.1223 4.09011 15.5948 4.08097 15.2638 4.40065C15.2568 4.40737 15.25 4.41417 15.2433 4.42112L0.24328 19.4211C0.16625 19.4985 0.105077 19.5903 0.0633559 19.6912Z" fill="#2196F3"></path>
      <path d="M15.8334 4.17637C16.2937 4.17551 16.6674 4.54801 16.6683 5.00824C16.6687 5.23012 16.5805 5.44301 16.4234 5.59973L2.01171 20.0096L16.4234 34.4196C16.7432 34.7507 16.734 35.2782 16.403 35.598C16.08 35.9099 15.568 35.9099 15.2451 35.598L0.245147 20.598C-0.0801645 20.2726 -0.0801645 19.7451 0.245147 19.4196L15.2451 4.41965C15.4012 4.26387 15.6128 4.17637 15.8334 4.17637Z" fill="#B1B1B1"></path>
      <path d="M0.833355 19.1759L39.1666 19.1759C39.6269 19.1759 40 19.5489 40 20.0092C40 20.4694 39.6269 20.8425 39.1666 20.8425L0.833275 20.8425C0.373043 20.8425 -8.0076e-05 20.4694 -8.00358e-05 20.0092C-3.70161e-06 19.5489 0.373119 19.1759 0.833355 19.1759Z" fill="#B1B1B1"></path>
    </g>
    <defs>
      <clipPath id="clip0">
        <rect width="40" height="40" fill="white" transform="translate(40 40) rotate(-180)"></rect>
      </clipPath>
    </defs>
  </symbol>
  <symbol fill="none" xmlns="http://www.w3.org/2000/svg" viewBox="0 0 20 17" id="twitter">
    <path d="M17.9297 4.4375C17.9557 4.54167 17.9688 4.71094 17.9688 4.94531C17.9688 6.82031 17.513 8.63021 16.6016 10.375C15.6641 12.224 14.349 13.6953 12.6562 14.7891C10.8073 16.013 8.6849 16.625 6.28906 16.625C3.9974 16.625 1.90104 16.013 0 14.7891C0.286458 14.8151 0.611979 14.8281 0.976562 14.8281C2.8776 14.8281 4.58333 14.2422 6.09375 13.0703C5.18229 13.0703 4.375 12.8099 3.67188 12.2891C2.99479 11.7422 2.52604 11.0651 2.26562 10.2578C2.52604 10.2839 2.77344 10.2969 3.00781 10.2969C3.3724 10.2969 3.73698 10.2578 4.10156 10.1797C3.16406 9.97135 2.38281 9.48958 1.75781 8.73438C1.13281 7.97917 0.820312 7.11979 0.820312 6.15625V6.07812C1.39323 6.41667 2.00521 6.59896 2.65625 6.625C2.10938 6.23438 1.66667 5.73958 1.32812 5.14062C0.989583 4.54167 0.820312 3.89062 0.820312 3.1875C0.820312 2.45833 1.01562 1.76823 1.40625 1.11719C2.42188 2.39323 3.65885 3.40885 5.11719 4.16406C6.60156 4.91927 8.17708 5.33594 9.84375 5.41406C9.79167 5.10156 9.76562 4.78906 9.76562 4.47656C9.76562 3.7474 9.94792 3.07031 10.3125 2.44531C10.6771 1.79427 11.1719 1.28646 11.7969 0.921875C12.4219 0.557292 13.099 0.375 13.8281 0.375C14.4271 0.375 14.974 0.492188 15.4688 0.726562C15.9896 0.960938 16.4453 1.27344 16.8359 1.66406C17.7734 1.48177 18.6458 1.15625 19.4531 0.6875C19.1406 1.65104 18.5417 2.40625 17.6562 2.95312C18.4375 2.84896 19.2188 2.6276 20 2.28906C19.4271 3.1224 18.737 3.83854 17.9297 4.4375Z" fill="#05297F"></path>
  </symbol>
</svg>
